{"title":"Student Of The Year 2012 Audio Cleaned SCamRip MPEG (DDD) - Hind","uid":7742272,"size":745572352,"categoryP":"video","categoryS":"movies","magnet":"?xt=urn:btih:578861f9cf89234b6ecd7c75eb1d8fde2e47ef3a&amp;dn=Student+Of+The+Year+2012+Audio+Cleaned+SCamRip+MPEG+%28DDD%29+-+Hind&amp;tr=udp%3A%2F%2Ftracker.openbittorrent.com%3A80&amp;tr=udp%3A%2F%2Fopen.demonii.com%3A1337&amp;tr=udp%3A%2F%2Ftracker.coppersurfer.tk%3A6969&amp;tr=udp%3A%2F%2Fexodus.desync.com%3A6969","seeders":0,"leechers":0,"uploader":"SJonam","files":1,"time":1350660169,"description":" &lt;a href=&quot;http://desibbrg.org/images/66952052392581364616.gif&quot; rel=&quot;nofollow&quot; target=&quot;_NEW&quot;&gt;http://desibbrg.org/images/66952052392581364616.gif&lt;/a&gt;\n &lt;a href=&quot;\nhttp://desibbrg.org/images/25849274505024865301.png&quot; rel=&quot;nofollow&quot; target=&quot;_NEW&quot;&gt;\nhttp://desibbrg.org/images/25849274505024865301.png&lt;/a&gt;\n &lt;a href=&quot;\nhttp://desibbrg.org/images/83153630446986502487.jpg&quot; rel=&quot;nofollow&quot; target=&quot;_NEW&quot;&gt;\nhttp://desibbrg.org/images/83153630446986502487.jpg&lt;/a&gt;\n\n\nMedia Info - \nGeneral\nFormat : MPEG-PS\nFile size : 711 MiB\nDuration : 2h 6mn\nOverall bit rate mode : Variable\nOverall bit rate : 789 Kbps\nVideo #224\nID : 224 (0xE0)\nFormat : MPEG Video\nFormat version : Version 2\nFormat profile : Main@Main\nFormat settings, BVOP : Yes\nFormat settings, Matrix : Default\nDuration : 2h 6mn\nBit rate mode : Variable\nBit rate : 645 Kbps\nMaximum bit rate : 9 672 Kbps\nWidth : 352 pixels\nHeight : 288 pixels\nDisplay aspect ratio : 4:3\nFrame rate : 25.000 fps\nStandard : PAL\nColor space : YUV\nChroma subsampling : 4:2:0\nBit depth : 8 bits\nScan type : Progressive\nCompression mode : Lossy\nBits/(Pixel*Frame) : 0.255\nStream size : 581 MiB (82%)\n\nAudio #192\nID : 192 (0xC0)\nFormat : MPEG Audio\nFormat version : Version 1\nFormat profile : Layer 2\nDuration : 2h 6mn\nBit rate mode : Constant\nBit rate : 128 Kbps\nChannel(s) : 2 channels\nSampling rate : 48.0 KHz\nCompression mode : Lossy\nStream size : 115 MiB (16%)\n\nRipper : DDD\n\nSeeding 24x7... Extreme Seeding...\n\n\nEnjoy!\n","torrent":{"xt":"urn:btih:578861f9cf89234b6ecd7c75eb1d8fde2e47ef3a","amp;dn":"Student+Of+The+Year+2012+Audio+Cleaned+SCamRip+MPEG+%28DDD%29+-+Hind","amp;tr":["udp%3A%2F%2Ftracker.openbittorrent.com%3A80","udp%3A%2F%2Fopen.demonii.com%3A1337","udp%3A%2F%2Ftracker.coppersurfer.tk%3A6969","udp%3A%2F%2Fexodus.desync.com%3A6969"],"infoHash":"578861f9cf89234b6ecd7c75eb1d8fde2e47ef3a","infoHashBuffer":{"type":"Buffer","data":[87,136,97,249,207,137,35,75,110,205,124,117,235,29,143,222,46,71,239,58]},"announce":[],"urlList":[]}}